<svg width="27" height="24" viewBox="0 0 27 24" fill="none" xmlns="http://www.w3.org/2000/svg">
<path d="M12.4291 1.35008C14.0029 1.26998 14.9197 1.95407 16.2944 2.36105C17.7719 2.79834 18.3585 2.09803 18.3758 4.16867C18.3791 4.58215 18.1972 6.01851 18.0381 6.36379C18.01 6.42549 18.0403 6.49585 17.9894 6.54672C17.9775 6.55863 17.7058 6.58677 17.6669 6.64197C17.5792 6.32591 17.4114 4.51288 17.2263 4.47608C14.7844 5.32793 12.4258 5.82692 9.84538 5.34741C9.63648 5.44916 9.43623 6.83897 9.30743 7.14637L9.24789 7.11931C8.47072 4.12213 8.36573 1.55682 12.4291 1.349V1.35008Z" fill="#F9AB81"/>
<path d="M15.7066 14.7708C15.318 16.6499 14.4196 18.622 13.9834 20.513L13.9239 20.7089C13.6727 20.7089 13.4216 20.6992 13.1705 20.6992L13.0785 20.5119L11.2243 14.7513C12.6618 15.9052 13.9401 15.7785 15.4327 14.8931C15.5074 14.8488 15.5778 14.7308 15.7066 14.7708Z" fill="#56BE93"/>
<path d="M11.8944 21.6128L13.4103 21.6177L14.9262 21.6225" stroke="#4D6482" stroke-width="1.3" stroke-linecap="round" stroke-linejoin="round"/>
<path d="M17.2793 16.8317L16.8626 16.8913C16.6591 16.9497 16.1352 17.0677 16.1807 16.73C16.2132 16.5633 16.5996 16.4637 16.7955 16.4204L17.2122 16.3609C17.524 16.3241 17.5889 16.7798 17.2793 16.8317Z" fill="#131515"/>
<path d="M16.7696 14.9775C16.9265 15.2243 17.8465 16.0242 17.8303 16.2526C17.7957 16.7527 15.4609 19.7445 15.1892 20.4935" stroke="#131515" stroke-linecap="round" stroke-linejoin="round"/>
<path d="M10.458 16.7701L9.19485 16.4064L11.8727 20.4914" stroke="#131515" stroke-linecap="round" stroke-linejoin="round"/>
<path d="M24.0249 20.6992C24.7923 20.7209 27.1422 20.4698 26.3326 21.8293C25.8542 22.6313 25.0575 22.5025 24.263 22.5426C16.855 22.9138 9.10934 22.2428 1.66671 22.5188C0.771559 22.5512 -0.0748835 20.9893 1.01294 20.735C5.06547 20.8032 9.118 20.7079 13.1716 20.6992C13.4227 20.6992 13.6739 20.709 13.925 20.709C17.248 20.7122 20.729 20.6072 24.026 20.6992H24.0249Z" stroke="#131515" stroke-linecap="round" stroke-linejoin="round"/>
<path d="M10.1669 15.0338L9.09204 16.2916" stroke="#131515" stroke-linecap="round" stroke-linejoin="round"/>
<path d="M15.4328 14.8942C13.9391 15.7796 12.6618 15.9063 11.2244 14.7524L13.0786 20.513" stroke="#131515" stroke-linecap="round" stroke-linejoin="round"/>
<path d="M15.8127 12.791C15.8831 13.5162 15.8517 14.0672 15.7067 14.7707C15.3181 16.6498 14.4197 18.6219 13.9835 20.5129" stroke="#131515" stroke-linecap="round" stroke-linejoin="round"/>
<path d="M10.8769 14.6593C9.61161 14.8422 6.94022 15.4148 6.12517 16.4182C5.36316 17.3567 5.76257 19.3678 5.72035 20.5205" stroke="#131515" stroke-linecap="round" stroke-linejoin="round"/>
<path d="M21.3142 20.2962C21.0587 18.9941 21.7097 17.2896 20.6954 16.2397C19.9313 15.4485 17.1625 14.799 16.0606 14.3639" stroke="#131515" stroke-linecap="round" stroke-linejoin="round"/>
<path d="M11.1854 12.7316L11.1129 14.5944" stroke="#131515" stroke-linecap="round" stroke-linejoin="round"/>
<path d="M3.14746 20.5801L3.18859 8.44953C3.57393 7.08678 5.69112 7.63772 6.77786 7.64638" stroke="#131515" stroke-linecap="round" stroke-linejoin="round"/>
<path d="M23.9482 20.7352L23.907 8.60468C23.5217 7.24193 21.4045 7.79287 20.3178 7.80153" stroke="#131515" stroke-linecap="round" stroke-linejoin="round"/>
<path d="M11.1215 12.3744C10.7827 12.0486 10.4212 11.5864 10.1701 11.1848C9.95686 10.8439 9.788 10.044 9.67327 9.8827C9.41999 9.5255 8.98378 9.69761 8.71859 8.9843C8.41876 8.17574 9.03465 7.79906 9.30742 7.14637C9.43622 6.84005 9.63647 5.44916 9.84537 5.34741C12.4258 5.82692 14.7855 5.32685 17.2263 4.47607C17.4103 4.51288 17.5792 6.32591 17.6668 6.64197C17.9364 7.61289 18.8575 8.43227 18.1258 9.32959C17.8844 9.62509 17.5813 9.60993 17.4157 9.80693C17.2999 9.9444 17.0455 10.9575 16.8301 11.3039C15.5562 13.3496 13.0103 14.1928 11.1215 12.3744Z" stroke="#131515" stroke-linecap="round" stroke-linejoin="round"/>
<path d="M9.21868 7.49814C9.30203 7.38557 9.28146 7.24486 9.24899 7.1193C8.47182 4.12211 8.36683 1.55681 12.4302 1.34898C14.004 1.26889 14.9208 1.95297 16.2955 2.35995C17.7729 2.79725 18.3596 2.09693 18.3769 4.16757C18.3802 4.58105 18.1983 6.01741 18.0392 6.3627" stroke="#131515" stroke-linecap="round" stroke-linejoin="round"/>
</svg>
