<?xml version="1.0" encoding="UTF-8"?>
<svg id="Layer_2" data-name="Layer 2" xmlns="http://www.w3.org/2000/svg" xmlns:xlink="http://www.w3.org/1999/xlink" viewBox="0 0 390 92">
  <defs>
    <style>
      .cls-1 {
        fill: url(#linear-gradient);
      }

      .cls-2 {
        fill: #c1d7df;
      }

      .cls-3 {
        fill: #77abbe;
      }

      .cls-4 {
        fill: #e5eff1;
      }
    </style>
    <linearGradient id="linear-gradient" x1="196.34" y1="791.88" x2="196.55" y2="841.17" gradientTransform="translate(0 -750)" gradientUnits="userSpaceOnUse">
      <stop offset="0" stop-color="#77abbe"/>
      <stop offset="1" stop-color="#77abbe"/>
    </linearGradient>
  </defs>
  <g id="Layer_1-2" data-name="Layer 1-2">
    <path class="cls-2" d="M115.8,75.44c20.85.04,41.73-.02,62.57,0,15.4.01,30.82-.2,46.2-.2,37.99,0,76.04.2,114.04.2h54.39v16.36h-129.39c-67.85-5.64-135.87-10.24-203.81-15.36-2.6-.2-5.86-.45-8.34-1,3.86.14,7.82-.04,11.7,0,11.79.12,23.61-.23,35.39-.2,5.73.02,11.51.19,17.25.2h0Z"/>
    <path class="cls-3" d="M358.5,27.15c1.31,1.79,3.08,3.45,4.53,5.19-.51-1.96-.5-4.27-1.02-6.19l8.34,8.98-2.92-6.19,25.58,18.36v28.14h-54.39c5.96-16.5,11.66-33.21,18.28-49.49l1.61,1.2h0Z"/>
    <path class="cls-3" d="M356.75,25.15c.12.35,1.42,1.54,1.76,2l-1.61-1.2c-6.62,16.28-12.31,33-18.28,49.49-38,0-76.04-.2-114.04-.2,5.89-1.36,11.69-2.96,17.55-4.39,20.1-4.9,40.28-9.65,60.39-14.57l3.07-2c4.15-2.14,8.4-5.48,12.28-7.98,9.65-6.23,19.14-12.64,28.65-18.96l-3.36,5.79,13.59-7.98h0Z"/>
    <path class="cls-2" d="M356.46,21.36c.52,1.14-.05,2.8.29,3.79l-13.59,7.98,3.36-5.79c3.22-2.14,6.21-4.48,9.5-6.58.7-.09.36.57.44.6Z"/>
    <path class="cls-4" d="M362.01,26.15c.52,1.91.51,4.23,1.02,6.19-1.46-1.74-3.22-3.4-4.53-5.19-.34-.46-1.64-1.65-1.76-2-.35-1,.23-2.65-.29-3.79,2.62.96,5.03,2.87,5.56,4.79h0Z"/>
    <path class="cls-1" d="M51.47,53.49c2.47.55,5.73.8,8.34,1,67.94,5.13,135.96,9.72,203.81,15.36h129.39v22.15H0v-52.48c16.27,5.45,32.83,13.3,51.47,13.97Z"/>
    <path class="cls-2" d="M283.93,28.94c11.38,5.72,22.46,11.72,33.92,17.36-3.88,2.5-8.13,5.84-12.28,7.98-.98.5-2.03.89-2.78,1.6l-20.18,4.99c-5.14-3.59-9.79-7.49-14.77-11.17,4.12-6.75,7-13.8,10.23-20.75l4.83,5.79v-4.99l6.87,4.69-5.85-5.49h.01Z"/>
    <path class="cls-2" d="M278.09,28.74c-.03.06.03.14,0,.2-3.24,6.95-6.12,14.01-10.23,20.75-4.45-3.3-8.74-6.67-13.16-9.98l21.2-11.78,1.31-.1-1.61,1.9,2.49-1h0Z"/>
    <path class="cls-4" d="M283.93,28.94l5.85,5.49-6.87-4.69v4.99l-4.83-5.79c.03-.06-.03-.14,0-.2.35-.72.62-2.21,2.2-2,1.21.73,2.36,1.54,3.65,2.19h0Z"/>
    <path class="cls-4" d="M202.65.2l-8.77,24.45,9.5-12.47,5.12,11.58c.18,8.11.97,16.22-1.46,24.25l1.17.9-4.68-2.39c-.28-.61-6.11-4.65-7.02-4.99-.41-.15-.21-.2-.44-.4l-35.38,20.16-44.89,14.17c-5.74-.01-11.53-.18-17.26-.2-.98-.38-1.96-.79-2.92-1.2-.39-.89,2.46-2.83,3.51-3.59,14.29-10.27,30-20.46,44.74-30.53C163.34,26.62,183.02,13.42,202.64.21h0Z"/>
    <path class="cls-4" d="M216.1,11.18c3.88,5.13,9.13,9.71,13.16,14.77-1.47-.75-10.54-9.31-11.26-8.98l1.9,6.68-11.55-13.07c-.68,4.13.62,8.34.73,12.47,0,.07-.58.66-.58.7l-5.12-11.58-9.5,12.47L202.64.2l.73-.2c3.48,2.97,7.49,5.71,10.97,8.68.54.46,3.39,2.55,1.46,2.19l.29.3h.01Z"/>
    <path class="cls-3" d="M24.86,38.32l-3.07-1.6.15,2.49,41.23,36.22c-3.88-.04-7.84.14-11.7,0-18.64-.68-35.19-8.52-51.47-13.97v-23.94l13.3-7.39c.6.27-.81,2.3-.73,2.69.1.54,8.38,7.56,9.07,8.78l-.58-5.39c.39-.8,3.3,1.75,3.8,2.1h0Z"/>
    <path class="cls-3" d="M24.86,38.32c5.4,3.72,12.34,9.4,17.98,12.57,4.19,2.36,10.94,4.65,15.64,6.78,12.26,5.58,24.63,11.05,37.14,16.36.96.41,1.94.82,2.92,1.2-11.77-.03-23.6.32-35.39.2L21.94,39.22l-.15-2.49,3.07,1.6h0Z"/>
    <path class="cls-2" d="M120.48,28.34l-21.35,42.11c-1.05.75-3.9,2.7-3.51,3.59-12.51-5.31-24.88-10.79-37.14-16.36,19.51-9.53,38.06-19.97,57.32-29.73l-3.65,4.79,7.9-5.99c.12.04.35,1.32.44,1.6h-.01Z"/>
    <path class="cls-2" d="M126.04,29.54l17.84,10.38c-14.75,10.07-30.45,20.26-44.74,30.54l21.35-42.11c.72,2.32,1.14,4.71,2.2,6.98l.88-5.79,4.53,5.09-2.05-5.09h0Z"/>
    <path class="cls-4" d="M126.04,29.54l2.05,5.09-4.53-5.09-.88,5.79c-1.05-2.27-1.47-4.66-2.2-6.98-.08-.28-.31-1.56-.44-1.6l-7.9,5.99,3.65-4.79c.71-.36,3.63-2.23,4.24-2.19,2.1,1.19,3.92,2.58,6,3.79h.01Z"/>
    <path class="cls-2" d="M203.52,46.5l4.68,2.39,33.92,21.95c-5.86,1.43-11.64,3.03-17.55,4.39-15.38,0-30.8.21-46.2.2,3.98-4.63,7.77-9.42,10.52-14.47,2.76-5.04,4.27-10.35,6.72-15.46.34,1.68,3.26,5.12,3.36,7.18l1.76-5.99,3.36,3.69c-.35-1.16-.08-2.83-.58-3.89h.01Z"/>
    <path class="cls-2" d="M196.51,41.51c-.33,1.21-1.12,2.77-.88,3.99-2.46,5.12-3.95,10.41-6.72,15.46-2.77,5.06-6.55,9.84-10.52,14.47-20.85-.02-41.73.04-62.57,0l44.89-14.17,35.39-20.16c.23.2.03.25.44.4h-.03Z"/>
    <path class="cls-4" d="M203.52,46.5c.5,1.06.24,2.73.58,3.89l-3.36-3.69-1.76,5.99c-.11-2.06-3.02-5.51-3.36-7.18-.25-1.23.54-2.78.88-3.99.91.34,6.73,4.37,7.02,4.99h0Z"/>
    <path class="cls-4" d="M229.26,25.95s.21.35.44.4c.54-.48-.42-.38-.44-.4-4.03-5.06-9.29-9.64-13.16-14.77,1.7.69,3.34,1.9,4.68,2.89,11.41,8.45,22.57,17.14,33.92,25.64,4.41,3.31,8.7,6.68,13.16,9.98,4.97,3.69,9.63,7.59,14.77,11.17l20.18-4.99c.75-.71,1.8-1.09,2.78-1.6l-3.07,2c-20.1,4.91-40.28,9.66-60.39,14.57l-33.92-21.95-1.17-.9c2.43-8.03,1.64-16.13,1.46-24.25,0-.04.58-.63.58-.7-.11-4.13-1.41-8.34-.73-12.47l11.55,13.07-1.9-6.68c.72-.32,9.79,8.23,11.26,8.98h0Z"/>
    <path class="cls-4" d="M229.26,25.95s.97-.08.44.4c-.23-.05-.41-.38-.44-.4Z"/>
    <path class="cls-4" d="M230.28,26.75l.44.1-.15.3-.15-.1-.15-.3h0Z"/>
  </g>
</svg>
