<?xml version="1.0" encoding="UTF-8"?><svg id="a" xmlns="http://www.w3.org/2000/svg" xmlns:xlink="http://www.w3.org/1999/xlink" viewBox="0 0 106.17 23.06"><defs><style>.f{fill:url(#e);}.g{fill:url(#d);}.h{fill:url(#c);}.i{fill:url(#b);}.j{fill:#fff;}</style><linearGradient id="b" x1="2.36" y1="19.9" x2="17.31" y2=".68" gradientTransform="matrix(1, 0, 0, 1, 0, 0)" gradientUnits="userSpaceOnUse"><stop offset="0" stop-color="#dbe0d6"/><stop offset=".2" stop-color="#dbe0d6"/><stop offset=".29" stop-color="#cae2cf"/><stop offset=".46" stop-color="#9fe7bf"/><stop offset=".71" stop-color="#5af0a4"/><stop offset="1" stop-color="#00fc82"/></linearGradient><linearGradient id="c" x1="8.3" y1="24.51" x2="23.24" y2="5.29" xlink:href="#b"/><linearGradient id="d" x1="7.9" y1="24.21" x2="22.85" y2="4.99" xlink:href="#b"/><linearGradient id="e" x1="1.97" y1="19.59" x2="16.92" y2=".37" xlink:href="#b"/></defs><g><path class="j" d="M46.69,14.69l1.5,1.1c-1.51,2.85-3.87,4.27-7.06,4.27-2.31,0-4.22-.82-5.75-2.47-1.53-1.65-2.29-3.72-2.29-6.22s.8-4.53,2.39-6.19c1.59-1.66,3.52-2.49,5.78-2.49,1.62,0,3.04,.39,4.26,1.16,1.22,.77,2.12,1.82,2.71,3.14l-1.55,1.1c-1.15-2.42-2.97-3.63-5.47-3.63-1.7,0-3.14,.66-4.31,1.99-1.17,1.33-1.75,2.97-1.75,4.93s.56,3.64,1.68,4.95,2.57,1.97,4.36,1.97c1.26,0,2.33-.28,3.21-.85,.88-.56,1.65-1.48,2.3-2.76Z"/><path class="j" d="M61.56,14.11h-9.79c.06,1.27,.46,2.32,1.19,3.14,.73,.82,1.69,1.23,2.89,1.23,1,0,1.81-.23,2.42-.7,.61-.47,1.13-1.13,1.56-1.99l1.36,.81c-1.16,2.31-2.97,3.46-5.42,3.46-1.64,0-3.03-.59-4.17-1.78-1.14-1.19-1.71-2.68-1.71-4.48s.57-3.29,1.72-4.48c1.15-1.19,2.55-1.78,4.22-1.78s3.14,.55,4.17,1.65,1.54,2.52,1.54,4.27v.64Zm-5.7-4.99c-1.03,0-1.89,.31-2.58,.94-.68,.63-1.14,1.47-1.36,2.52h7.78c-.06-1.07-.48-1.91-1.24-2.53s-1.63-.93-2.6-.93Z"/><path class="j" d="M70.06,7.67l-.31,1.74c-.29-.1-.6-.14-.93-.14-.84,0-1.56,.37-2.14,1.11-.58,.74-.87,1.7-.87,2.88v6.47h-1.86V7.88h1.86v2.15c.76-1.65,1.91-2.48,3.44-2.48,.25,0,.53,.04,.81,.12Z"/><path class="j" d="M72.06,5.83V3.49h2.24v2.34h-2.24Zm.19,13.89V7.88h1.86v11.84h-1.86Z"/><path class="j" d="M76.5,9.36v-1.48h1.98v-3.2h1.86v3.2h2.72v1.48h-2.72v7.16c0,.68,.11,1.17,.32,1.47,.21,.29,.65,.44,1.3,.44,.27,0,.56-.05,.88-.14l.17,1.55c-.41,.14-.94,.21-1.58,.21-.86,0-1.57-.25-2.12-.75s-.84-1.31-.84-2.42v-7.52h-1.98Z"/><path class="j" d="M95.24,19.72h-1.86c-.48-.57-.72-1.35-.72-2.34-.37,.86-.9,1.52-1.61,1.98-.71,.46-1.52,.69-2.42,.69-1.19,0-2.16-.34-2.89-1.01-.73-.68-1.1-1.54-1.1-2.59s.38-1.95,1.13-2.6c.76-.65,1.74-1.07,2.95-1.26l3.94-.64v-.52c0-1.53-.93-2.29-2.79-2.29-.89,0-1.58,.18-2.06,.53-.49,.35-.73,.79-.73,1.31,0,.11,.02,.23,.05,.36l-1.62,.55c-.13-.3-.19-.62-.19-.95,0-.92,.42-1.71,1.25-2.38s1.94-.99,3.31-.99c1.53,0,2.68,.34,3.47,1.01,.79,.68,1.18,1.63,1.18,2.85v5.35c0,.68,.05,1.23,.14,1.64s.29,.85,.57,1.32Zm-6.4-1.34c1.19,0,2.13-.45,2.8-1.35,.68-.9,1.01-1.98,1.01-3.26v-.36l-3.6,.62c-.81,.14-1.43,.41-1.86,.81-.43,.4-.64,.9-.64,1.5s.21,1.11,.62,1.48,.97,.55,1.67,.55Z"/><path class="j" d="M99.03,10.68c0,.57,.27,1.02,.8,1.34,.53,.32,1.32,.57,2.35,.76,2.66,.51,3.99,1.67,3.99,3.48,0,1.07-.4,1.97-1.19,2.7-.8,.73-1.89,1.1-3.29,1.1-1.24,0-2.3-.32-3.16-.97-.87-.64-1.49-1.47-1.87-2.47l1.55-.95c.68,1.85,1.85,2.77,3.49,2.77,.81,0,1.45-.19,1.92-.56,.47-.37,.7-.89,.7-1.54,0-.57-.24-1.02-.73-1.35-.49-.33-1.25-.58-2.3-.78-1.18-.22-2.13-.62-2.86-1.18-.73-.56-1.1-1.32-1.1-2.28s.4-1.75,1.19-2.33c.8-.58,1.76-.87,2.89-.87,2.28,0,3.81,.95,4.61,2.86l-1.43,.84c-.57-1.42-1.62-2.12-3.15-2.12-.7,0-1.27,.13-1.72,.39s-.67,.65-.67,1.16Z"/></g><g><path class="i" d="M19.97,0l1.62,2.81,1.24,2.16-6.66,11.53h-5.74l-.97-1.68,1.15-1.99,.94,1.62s.05,.05,.09,.05h3.31s.07-.02,.09-.05l1.65-2.86h0l1.27-2.21h0l.61-1.07h0l1.27-2.21h0l.62-1.08s.02-.07,0-.11l-1.66-2.86s-.05-.05-.09-.05H7.87s-.07,.02-.09,.05L1.15,13.52l-1.15-1.99L6.66,0h13.31"/><path class="h" d="M23.58,6.26l1.15,1.99-6.66,11.53H8.55l-.97-1.68,1.15-1.99,.95,1.62s.05,.05,.09,.05h7.1s.07-.02,.09-.05l6.63-11.48"/><path class="g" d="M16.18,6.56l.98,1.69-1.16,2-.94-1.64s-.06-.05-.09-.05h-3.28s-.03-.01-.05-.01h0s-.07,.02-.09,.05l-5.45,9.44s-.02,.08,0,.11l.64,1.08,1.04,1.78s.05,.05,.09,.05h10.89s.07-.02,.09-.05l6.63-11.48,1.15,1.99-6.66,11.53H6.66l-1.73-3-1.15-1.95L10.44,6.56h5.74"/><path class="f" d="M18.08,3.28l.98,1.69-1.15,2-.94-1.64s-.06-.05-.09-.05h-7.1s-.07,.02-.09,.05L3.04,16.81l-1.16-1.98L8.55,3.28h9.53"/></g></svg>
